<mxfile host="app.diagrams.net" modified="2021-04-17T09:26:23.471Z" agent="5.0 (Windows NT 10.0; Win64; x64) AppleWebKit/537.36 (KHTML, like Gecko) Chrome/89.0.4389.128 Safari/537.36" etag="SUNv8dIhkhIjnQFIAjrm" version="14.6.0" type="github">
  <diagram id="FDt4tPUR-FzfX80rz6gk" name="Page-1">
    <mxGraphModel dx="1822" dy="762" grid="0" gridSize="10" guides="1" tooltips="1" connect="1" arrows="1" fold="1" page="0" pageScale="1" pageWidth="827" pageHeight="1169" math="0" shadow="0">
      <root>
        <mxCell id="0" />
        <mxCell id="1" parent="0" />
        <mxCell id="MzoiJkTVK7NHlLimjd_8-1" value="" style="endArrow=classic;html=1;" parent="1" edge="1">
          <mxGeometry width="50" height="50" relative="1" as="geometry">
            <mxPoint x="80" y="310" as="sourcePoint" />
            <mxPoint x="80" y="80" as="targetPoint" />
          </mxGeometry>
        </mxCell>
        <mxCell id="MzoiJkTVK7NHlLimjd_8-2" value="" style="endArrow=classic;html=1;" parent="1" edge="1">
          <mxGeometry width="50" height="50" relative="1" as="geometry">
            <mxPoint x="70" y="210" as="sourcePoint" />
            <mxPoint x="951" y="210" as="targetPoint" />
          </mxGeometry>
        </mxCell>
        <mxCell id="MzoiJkTVK7NHlLimjd_8-3" value="0" style="text;html=1;strokeColor=none;fillColor=none;align=center;verticalAlign=middle;whiteSpace=wrap;rounded=0;" parent="1" vertex="1">
          <mxGeometry x="30" y="200" width="40" height="20" as="geometry" />
        </mxCell>
        <mxCell id="MzoiJkTVK7NHlLimjd_8-4" value="" style="endArrow=none;dashed=1;html=1;" parent="1" edge="1">
          <mxGeometry width="50" height="50" relative="1" as="geometry">
            <mxPoint x="70" y="110" as="sourcePoint" />
            <mxPoint x="660" y="110" as="targetPoint" />
          </mxGeometry>
        </mxCell>
        <mxCell id="MzoiJkTVK7NHlLimjd_8-5" value="hiCredit" style="text;html=1;strokeColor=none;fillColor=none;align=center;verticalAlign=middle;whiteSpace=wrap;rounded=0;" parent="1" vertex="1">
          <mxGeometry x="30" y="100" width="40" height="20" as="geometry" />
        </mxCell>
        <mxCell id="MzoiJkTVK7NHlLimjd_8-6" value="" style="endArrow=none;dashed=1;html=1;" parent="1" edge="1">
          <mxGeometry width="50" height="50" relative="1" as="geometry">
            <mxPoint x="70" y="290" as="sourcePoint" />
            <mxPoint x="660" y="290" as="targetPoint" />
          </mxGeometry>
        </mxCell>
        <mxCell id="MzoiJkTVK7NHlLimjd_8-7" value="loCredit" style="text;html=1;strokeColor=none;fillColor=none;align=center;verticalAlign=middle;whiteSpace=wrap;rounded=0;" parent="1" vertex="1">
          <mxGeometry x="30" y="280" width="40" height="20" as="geometry" />
        </mxCell>
        <mxCell id="MzoiJkTVK7NHlLimjd_8-9" value="" style="endArrow=classic;html=1;" parent="1" edge="1">
          <mxGeometry width="50" height="50" relative="1" as="geometry">
            <mxPoint x="80" y="510" as="sourcePoint" />
            <mxPoint x="80" y="380" as="targetPoint" />
          </mxGeometry>
        </mxCell>
        <mxCell id="MzoiJkTVK7NHlLimjd_8-10" value="" style="endArrow=classic;html=1;" parent="1" edge="1">
          <mxGeometry width="50" height="50" relative="1" as="geometry">
            <mxPoint x="70" y="510" as="sourcePoint" />
            <mxPoint x="950" y="510" as="targetPoint" />
          </mxGeometry>
        </mxCell>
        <mxCell id="MzoiJkTVK7NHlLimjd_8-11" value="0" style="text;html=1;strokeColor=none;fillColor=none;align=center;verticalAlign=middle;whiteSpace=wrap;rounded=0;" parent="1" vertex="1">
          <mxGeometry x="30" y="500" width="40" height="20" as="geometry" />
        </mxCell>
        <mxCell id="MzoiJkTVK7NHlLimjd_8-12" value="1" style="text;html=1;strokeColor=none;fillColor=none;align=center;verticalAlign=middle;whiteSpace=wrap;rounded=0;" parent="1" vertex="1">
          <mxGeometry x="30" y="480" width="40" height="20" as="geometry" />
        </mxCell>
        <mxCell id="MzoiJkTVK7NHlLimjd_8-13" value="ClassA队列" style="text;html=1;strokeColor=none;fillColor=none;align=center;verticalAlign=middle;whiteSpace=wrap;rounded=0;" parent="1" vertex="1">
          <mxGeometry x="80" y="360" width="80" height="20" as="geometry" />
        </mxCell>
        <mxCell id="MzoiJkTVK7NHlLimjd_8-14" value="2" style="text;html=1;strokeColor=none;fillColor=none;align=center;verticalAlign=middle;whiteSpace=wrap;rounded=0;" parent="1" vertex="1">
          <mxGeometry x="30" y="460" width="40" height="20" as="geometry" />
        </mxCell>
        <mxCell id="MzoiJkTVK7NHlLimjd_8-15" value="3" style="text;html=1;strokeColor=none;fillColor=none;align=center;verticalAlign=middle;whiteSpace=wrap;rounded=0;" parent="1" vertex="1">
          <mxGeometry x="30" y="440" width="40" height="20" as="geometry" />
        </mxCell>
        <mxCell id="MzoiJkTVK7NHlLimjd_8-16" value="" style="endArrow=none;html=1;entryX=1;entryY=0.5;entryDx=0;entryDy=0;" parent="1" target="MzoiJkTVK7NHlLimjd_8-12" edge="1">
          <mxGeometry width="50" height="50" relative="1" as="geometry">
            <mxPoint x="80" y="490" as="sourcePoint" />
            <mxPoint x="400" y="370" as="targetPoint" />
          </mxGeometry>
        </mxCell>
        <mxCell id="MzoiJkTVK7NHlLimjd_8-17" value="" style="endArrow=none;html=1;entryX=1;entryY=0.5;entryDx=0;entryDy=0;" parent="1" target="MzoiJkTVK7NHlLimjd_8-14" edge="1">
          <mxGeometry width="50" height="50" relative="1" as="geometry">
            <mxPoint x="80" y="470" as="sourcePoint" />
            <mxPoint x="80" y="500" as="targetPoint" />
          </mxGeometry>
        </mxCell>
        <mxCell id="MzoiJkTVK7NHlLimjd_8-18" value="" style="endArrow=none;html=1;entryX=1;entryY=0.5;entryDx=0;entryDy=0;" parent="1" target="MzoiJkTVK7NHlLimjd_8-15" edge="1">
          <mxGeometry width="50" height="50" relative="1" as="geometry">
            <mxPoint x="80" y="450" as="sourcePoint" />
            <mxPoint x="70" y="490" as="targetPoint" />
          </mxGeometry>
        </mxCell>
        <mxCell id="MzoiJkTVK7NHlLimjd_8-19" value="数据帧A" style="rounded=0;whiteSpace=wrap;html=1;" parent="1" vertex="1">
          <mxGeometry x="202" y="490" width="170" height="20" as="geometry" />
        </mxCell>
        <mxCell id="MzoiJkTVK7NHlLimjd_8-20" value="&lt;span&gt;数据帧B&lt;/span&gt;" style="rounded=0;whiteSpace=wrap;html=1;" parent="1" vertex="1">
          <mxGeometry x="397" y="610" width="150" height="20" as="geometry" />
        </mxCell>
        <mxCell id="MzoiJkTVK7NHlLimjd_8-21" value="&lt;span&gt;数据帧C&lt;/span&gt;" style="rounded=0;whiteSpace=wrap;html=1;" parent="1" vertex="1">
          <mxGeometry x="417" y="590" width="130" height="20" as="geometry" />
        </mxCell>
        <mxCell id="MzoiJkTVK7NHlLimjd_8-22" value="" style="endArrow=none;dashed=1;html=1;dashPattern=1 3;strokeWidth=2;" parent="1" edge="1">
          <mxGeometry width="50" height="50" relative="1" as="geometry">
            <mxPoint x="202" y="558" as="sourcePoint" />
            <mxPoint x="202" y="86" as="targetPoint" />
          </mxGeometry>
        </mxCell>
        <mxCell id="MzoiJkTVK7NHlLimjd_8-24" value="&lt;span&gt;数据帧B&lt;/span&gt;" style="rounded=0;whiteSpace=wrap;html=1;" parent="1" vertex="1">
          <mxGeometry x="547" y="630" width="120" height="20" as="geometry" />
        </mxCell>
        <mxCell id="MzoiJkTVK7NHlLimjd_8-25" value="&lt;span&gt;数据帧C&lt;/span&gt;" style="rounded=0;whiteSpace=wrap;html=1;" parent="1" vertex="1">
          <mxGeometry x="547" y="610" width="120" height="20" as="geometry" />
        </mxCell>
        <mxCell id="MzoiJkTVK7NHlLimjd_8-27" value="&lt;span&gt;数据帧C&lt;/span&gt;" style="rounded=0;whiteSpace=wrap;html=1;" parent="1" vertex="1">
          <mxGeometry x="667" y="630" width="120" height="20" as="geometry" />
        </mxCell>
        <mxCell id="MzoiJkTVK7NHlLimjd_8-30" value="&lt;span lang=&quot;EN-US&quot; style=&quot;font-size: 10.5pt ; font-family: &amp;#34;times new roman&amp;#34; , serif&quot;&gt;lengthRecoveryDuration&lt;/span&gt;" style="text;html=1;strokeColor=none;fillColor=none;align=center;verticalAlign=middle;whiteSpace=wrap;rounded=0;" parent="1" vertex="1">
          <mxGeometry x="234" y="156" width="110" height="20" as="geometry" />
        </mxCell>
        <mxCell id="SFahAzJePFch370rZ8Eo-1" value="" style="endArrow=none;dashed=1;html=1;dashPattern=1 3;strokeWidth=2;" parent="1" edge="1">
          <mxGeometry width="50" height="50" relative="1" as="geometry">
            <mxPoint x="372" y="548" as="sourcePoint" />
            <mxPoint x="372" y="89" as="targetPoint" />
          </mxGeometry>
        </mxCell>
        <mxCell id="SFahAzJePFch370rZ8Eo-3" value="&lt;span lang=&quot;EN-US&quot; style=&quot;font-size: 10.5pt ; font-family: &amp;quot;times new roman&amp;quot; , serif&quot;&gt;arrivalTime&lt;/span&gt;" style="text;whiteSpace=wrap;html=1;" parent="1" vertex="1">
          <mxGeometry x="166" y="56" width="86" height="28" as="geometry" />
        </mxCell>
        <mxCell id="SFahAzJePFch370rZ8Eo-5" value="" style="endArrow=none;dashed=1;html=1;dashPattern=1 3;strokeWidth=2;" parent="1" edge="1">
          <mxGeometry width="50" height="50" relative="1" as="geometry">
            <mxPoint x="511" y="569" as="sourcePoint" />
            <mxPoint x="511" y="84" as="targetPoint" />
          </mxGeometry>
        </mxCell>
        <mxCell id="SFahAzJePFch370rZ8Eo-6" value="" style="endArrow=classic;html=1;" parent="1" edge="1">
          <mxGeometry width="50" height="50" relative="1" as="geometry">
            <mxPoint x="217" y="169" as="sourcePoint" />
            <mxPoint x="203" y="169" as="targetPoint" />
          </mxGeometry>
        </mxCell>
        <mxCell id="SFahAzJePFch370rZ8Eo-7" value="" style="endArrow=classic;html=1;" parent="1" edge="1">
          <mxGeometry width="50" height="50" relative="1" as="geometry">
            <mxPoint x="357" y="168" as="sourcePoint" />
            <mxPoint x="369" y="168" as="targetPoint" />
          </mxGeometry>
        </mxCell>
        <mxCell id="SFahAzJePFch370rZ8Eo-11" value="&lt;span lang=&quot;EN-US&quot; style=&quot;font-size: 10.5pt ; font-family: &amp;#34;times new roman&amp;#34; , serif&quot;&gt;BucketEmptyTime&lt;/span&gt;" style="text;whiteSpace=wrap;html=1;" parent="1" vertex="1">
          <mxGeometry x="30" y="57" width="86" height="27" as="geometry" />
        </mxCell>
        <mxCell id="SFahAzJePFch370rZ8Eo-14" value="&lt;span lang=&quot;EN-US&quot; style=&quot;font-size: 10.5pt ; font-family: &amp;#34;times new roman&amp;#34; , serif&quot;&gt;BucketFullTime&lt;/span&gt;" style="text;whiteSpace=wrap;html=1;" parent="1" vertex="1">
          <mxGeometry x="290" y="54" width="86" height="27" as="geometry" />
        </mxCell>
        <mxCell id="SFahAzJePFch370rZ8Eo-15" value="" style="endArrow=none;dashed=1;html=1;dashPattern=1 3;strokeWidth=2;" parent="1" edge="1">
          <mxGeometry width="50" height="50" relative="1" as="geometry">
            <mxPoint x="263.0000000000002" y="556" as="sourcePoint" />
            <mxPoint x="263.0000000000002" y="97" as="targetPoint" />
          </mxGeometry>
        </mxCell>
        <mxCell id="SFahAzJePFch370rZ8Eo-16" value="" style="endArrow=none;dashed=1;html=1;dashPattern=1 3;strokeWidth=2;entryX=0.602;entryY=1.037;entryDx=0;entryDy=0;entryPerimeter=0;" parent="1" target="SFahAzJePFch370rZ8Eo-14" edge="1">
          <mxGeometry width="50" height="50" relative="1" as="geometry">
            <mxPoint x="343.17000000000024" y="552" as="sourcePoint" />
            <mxPoint x="343.17000000000024" y="93" as="targetPoint" />
          </mxGeometry>
        </mxCell>
        <mxCell id="SFahAzJePFch370rZ8Eo-17" value="&lt;span lang=&quot;EN-US&quot; style=&quot;font-size: 10.5pt ; font-family: &amp;quot;times new roman&amp;quot; , serif&quot;&gt;schedulerEligibilityTime&lt;/span&gt;" style="text;whiteSpace=wrap;html=1;" parent="1" vertex="1">
          <mxGeometry x="202.00137931034487" y="75.00241379310349" width="159" height="28" as="geometry" />
        </mxCell>
        <mxCell id="SFahAzJePFch370rZ8Eo-18" value="" style="endArrow=classic;html=1;strokeWidth=2;" parent="1" edge="1">
          <mxGeometry width="50" height="50" relative="1" as="geometry">
            <mxPoint x="-46" y="924" as="sourcePoint" />
            <mxPoint x="674" y="924" as="targetPoint" />
          </mxGeometry>
        </mxCell>
        <mxCell id="SFahAzJePFch370rZ8Eo-19" value="" style="endArrow=none;dashed=1;html=1;dashPattern=1 3;strokeWidth=2;" parent="1" edge="1">
          <mxGeometry width="50" height="50" relative="1" as="geometry">
            <mxPoint x="26" y="1002" as="sourcePoint" />
            <mxPoint x="26" y="837" as="targetPoint" />
          </mxGeometry>
        </mxCell>
        <mxCell id="SFahAzJePFch370rZ8Eo-20" style="edgeStyle=orthogonalEdgeStyle;rounded=0;orthogonalLoop=1;jettySize=auto;html=1;exitX=1;exitY=0.75;exitDx=0;exitDy=0;entryX=1;entryY=0.5;entryDx=0;entryDy=0;" parent="1" source="SFahAzJePFch370rZ8Eo-11" target="SFahAzJePFch370rZ8Eo-11" edge="1">
          <mxGeometry relative="1" as="geometry" />
        </mxCell>
        <mxCell id="SFahAzJePFch370rZ8Eo-21" value="&lt;span lang=&quot;EN-US&quot; style=&quot;font-size: 15px;&quot;&gt;BucketEmptyTime&lt;/span&gt;" style="text;whiteSpace=wrap;html=1;fontSize=15;strokeWidth=2;fontFamily=Times New Roman;" parent="1" vertex="1">
          <mxGeometry x="-23" y="799" width="86" height="27" as="geometry" />
        </mxCell>
        <mxCell id="SFahAzJePFch370rZ8Eo-22" value="" style="endArrow=none;dashed=1;html=1;dashPattern=1 3;strokeWidth=2;" parent="1" edge="1">
          <mxGeometry width="50" height="50" relative="1" as="geometry">
            <mxPoint x="574" y="1001" as="sourcePoint" />
            <mxPoint x="574" y="836" as="targetPoint" />
          </mxGeometry>
        </mxCell>
        <mxCell id="SFahAzJePFch370rZ8Eo-24" value="" style="endArrow=none;dashed=1;html=1;dashPattern=1 3;strokeWidth=2;startArrow=none;" parent="1" edge="1" source="uLEsSZK5AvrN5cMwI6N0-2">
          <mxGeometry width="50" height="50" relative="1" as="geometry">
            <mxPoint x="371" y="1004" as="sourcePoint" />
            <mxPoint x="371" y="839" as="targetPoint" />
          </mxGeometry>
        </mxCell>
        <mxCell id="SFahAzJePFch370rZ8Eo-25" value="&lt;span lang=&quot;EN-US&quot; style=&quot;font-size: 15px;&quot;&gt;arrivalTime&lt;/span&gt;" style="text;whiteSpace=wrap;html=1;fontSize=15;strokeWidth=2;fontFamily=Times New Roman;" parent="1" vertex="1">
          <mxGeometry x="322" y="809" width="86" height="27" as="geometry" />
        </mxCell>
        <mxCell id="SFahAzJePFch370rZ8Eo-26" value="" style="endArrow=none;dashed=1;html=1;dashPattern=1 3;strokeWidth=2;" parent="1" edge="1">
          <mxGeometry width="50" height="50" relative="1" as="geometry">
            <mxPoint x="160" y="1002" as="sourcePoint" />
            <mxPoint x="160" y="837" as="targetPoint" />
          </mxGeometry>
        </mxCell>
        <mxCell id="SFahAzJePFch370rZ8Eo-27" value="&lt;span lang=&quot;EN-US&quot; style=&quot;font-size: 15px;&quot;&gt;schedulerEligibilityTime&lt;/span&gt;" style="text;whiteSpace=wrap;html=1;fontSize=15;strokeWidth=2;fontFamily=Times New Roman;" parent="1" vertex="1">
          <mxGeometry x="84" y="817" width="86" height="27" as="geometry" />
        </mxCell>
        <mxCell id="SFahAzJePFch370rZ8Eo-28" value="&lt;span lang=&quot;EN-US&quot; style=&quot;font-size: 15px;&quot;&gt;bucketFullTime&lt;/span&gt;" style="text;whiteSpace=wrap;html=1;fontSize=15;strokeWidth=2;fontFamily=Times New Roman;" parent="1" vertex="1">
          <mxGeometry x="193.99827586206908" y="847.0013793103449" width="109" height="28" as="geometry" />
        </mxCell>
        <mxCell id="SFahAzJePFch370rZ8Eo-29" value="" style="endArrow=none;dashed=1;html=1;dashPattern=1 3;strokeWidth=2;" parent="1" edge="1">
          <mxGeometry width="50" height="50" relative="1" as="geometry">
            <mxPoint x="239.99999999999977" y="1003" as="sourcePoint" />
            <mxPoint x="240" y="871" as="targetPoint" />
          </mxGeometry>
        </mxCell>
        <mxCell id="SFahAzJePFch370rZ8Eo-32" value="" style="endArrow=classic;startArrow=classic;html=1;strokeColor=#3333FF;strokeWidth=2;" parent="1" edge="1">
          <mxGeometry width="50" height="50" relative="1" as="geometry">
            <mxPoint x="27" y="949" as="sourcePoint" />
            <mxPoint x="158" y="949" as="targetPoint" />
          </mxGeometry>
        </mxCell>
        <mxCell id="SFahAzJePFch370rZ8Eo-33" value="" style="endArrow=classic;startArrow=classic;html=1;strokeColor=#00FF00;strokeWidth=2;" parent="1" edge="1">
          <mxGeometry width="50" height="50" relative="1" as="geometry">
            <mxPoint x="161" y="973" as="sourcePoint" />
            <mxPoint x="238" y="973" as="targetPoint" />
          </mxGeometry>
        </mxCell>
        <mxCell id="SFahAzJePFch370rZ8Eo-34" value="&lt;span lang=&quot;EN-US&quot; style=&quot;font-size: 15px;&quot;&gt;&lt;font color=&quot;#ff3333&quot; style=&quot;font-size: 15px;&quot;&gt;eligibilityTime&lt;/font&gt;&lt;/span&gt;" style="text;whiteSpace=wrap;html=1;fontSize=15;strokeWidth=2;fontFamily=Times New Roman;" parent="1" vertex="1">
          <mxGeometry x="536.0041379310346" y="803.9975862068965" width="115" height="29" as="geometry" />
        </mxCell>
        <mxCell id="SFahAzJePFch370rZ8Eo-35" value="" style="endArrow=none;dashed=1;html=1;dashPattern=1 3;strokeWidth=2;" parent="1" edge="1">
          <mxGeometry width="50" height="50" relative="1" as="geometry">
            <mxPoint x="488" y="1000" as="sourcePoint" />
            <mxPoint x="488" y="877" as="targetPoint" />
          </mxGeometry>
        </mxCell>
        <mxCell id="SFahAzJePFch370rZ8Eo-36" value="&lt;span lang=&quot;EN-US&quot; style=&quot;font-size: 15px;&quot;&gt;&lt;font color=&quot;#ff3333&quot; style=&quot;font-size: 15px;&quot;&gt;BucketEmptyTime&lt;/font&gt;&lt;/span&gt;" style="text;whiteSpace=wrap;html=1;fontSize=15;strokeWidth=2;fontFamily=Times New Roman;" parent="1" vertex="1">
          <mxGeometry x="439" y="838" width="86" height="27" as="geometry" />
        </mxCell>
        <mxCell id="SFahAzJePFch370rZ8Eo-37" value="" style="endArrow=classic;startArrow=classic;html=1;strokeColor=#00FF00;strokeWidth=2;" parent="1" edge="1">
          <mxGeometry width="50" height="50" relative="1" as="geometry">
            <mxPoint x="491" y="969" as="sourcePoint" />
            <mxPoint x="568" y="969" as="targetPoint" />
          </mxGeometry>
        </mxCell>
        <mxCell id="SFahAzJePFch370rZ8Eo-38" value="" style="endArrow=classic;startArrow=classic;html=1;strokeColor=#FF3333;strokeWidth=2;" parent="1" edge="1">
          <mxGeometry width="50" height="50" relative="1" as="geometry">
            <mxPoint x="29" y="1000" as="sourcePoint" />
            <mxPoint x="242" y="1000" as="targetPoint" />
          </mxGeometry>
        </mxCell>
        <mxCell id="SFahAzJePFch370rZ8Eo-39" value="" style="endArrow=classic;html=1;strokeWidth=2;" parent="1" edge="1">
          <mxGeometry width="50" height="50" relative="1" as="geometry">
            <mxPoint x="-17" y="1241" as="sourcePoint" />
            <mxPoint x="680" y="1241" as="targetPoint" />
          </mxGeometry>
        </mxCell>
        <mxCell id="SFahAzJePFch370rZ8Eo-40" value="" style="endArrow=none;dashed=1;html=1;dashPattern=1 3;strokeWidth=2;entryX=0.561;entryY=1.049;entryDx=0;entryDy=0;entryPerimeter=0;" parent="1" target="SFahAzJePFch370rZ8Eo-41" edge="1">
          <mxGeometry width="50" height="50" relative="1" as="geometry">
            <mxPoint x="-9" y="1325.9999999999998" as="sourcePoint" />
            <mxPoint x="-9" y="1161" as="targetPoint" />
          </mxGeometry>
        </mxCell>
        <mxCell id="SFahAzJePFch370rZ8Eo-41" value="&lt;span lang=&quot;EN-US&quot; style=&quot;font-size: 15px; font-family: &amp;quot;times new roman&amp;quot;, serif;&quot;&gt;BucketEmptyTime&lt;/span&gt;" style="text;whiteSpace=wrap;html=1;fontSize=15;strokeWidth=2;" parent="1" vertex="1">
          <mxGeometry x="-56" y="1104" width="86" height="27" as="geometry" />
        </mxCell>
        <mxCell id="SFahAzJePFch370rZ8Eo-42" value="" style="endArrow=none;dashed=1;html=1;dashPattern=1 3;strokeWidth=2;" parent="1" edge="1">
          <mxGeometry width="50" height="50" relative="1" as="geometry">
            <mxPoint x="313" y="1319" as="sourcePoint" />
            <mxPoint x="313" y="1155" as="targetPoint" />
          </mxGeometry>
        </mxCell>
        <mxCell id="SFahAzJePFch370rZ8Eo-43" value="&lt;span lang=&quot;EN-US&quot; style=&quot;font-size: 15px; font-family: &amp;quot;times new roman&amp;quot;, serif;&quot;&gt;&lt;font color=&quot;#ff3333&quot; style=&quot;font-size: 15px;&quot;&gt;GroupEligibilityTime&lt;/font&gt;&lt;/span&gt;" style="text;whiteSpace=wrap;html=1;fontSize=15;strokeWidth=2;" parent="1" vertex="1">
          <mxGeometry x="525" y="1104" width="86" height="27" as="geometry" />
        </mxCell>
        <mxCell id="SFahAzJePFch370rZ8Eo-44" value="" style="endArrow=none;dashed=1;html=1;dashPattern=1 3;strokeWidth=2;" parent="1" edge="1">
          <mxGeometry width="50" height="50" relative="1" as="geometry">
            <mxPoint x="576" y="1318" as="sourcePoint" />
            <mxPoint x="576" y="1179" as="targetPoint" />
          </mxGeometry>
        </mxCell>
        <mxCell id="SFahAzJePFch370rZ8Eo-45" value="&lt;span lang=&quot;EN-US&quot; style=&quot;font-size: 15px; font-family: &amp;quot;times new roman&amp;quot;, serif;&quot;&gt;arrivalTime&lt;/span&gt;" style="text;whiteSpace=wrap;html=1;fontSize=15;strokeWidth=2;" parent="1" vertex="1">
          <mxGeometry x="539" y="1152" width="86" height="27" as="geometry" />
        </mxCell>
        <mxCell id="SFahAzJePFch370rZ8Eo-46" value="" style="endArrow=none;dashed=1;html=1;dashPattern=1 3;strokeWidth=2;" parent="1" edge="1">
          <mxGeometry width="50" height="50" relative="1" as="geometry">
            <mxPoint x="125" y="1325.9999999999998" as="sourcePoint" />
            <mxPoint x="125" y="1161" as="targetPoint" />
          </mxGeometry>
        </mxCell>
        <mxCell id="SFahAzJePFch370rZ8Eo-47" value="&lt;span lang=&quot;EN-US&quot; style=&quot;font-size: 15px; font-family: &amp;quot;times new roman&amp;quot;, serif;&quot;&gt;schedulerEligibilityTime&lt;/span&gt;" style="text;whiteSpace=wrap;html=1;fontSize=15;strokeWidth=2;" parent="1" vertex="1">
          <mxGeometry x="49" y="1141" width="86" height="27" as="geometry" />
        </mxCell>
        <mxCell id="SFahAzJePFch370rZ8Eo-48" value="&lt;span lang=&quot;EN-US&quot; style=&quot;font-size: 15px; font-family: &amp;quot;times new roman&amp;quot;, serif;&quot;&gt;bucketFullTime&lt;/span&gt;" style="text;whiteSpace=wrap;html=1;fontSize=15;strokeWidth=2;" parent="1" vertex="1">
          <mxGeometry x="162.99827586206908" y="1170.0013793103449" width="109" height="28" as="geometry" />
        </mxCell>
        <mxCell id="SFahAzJePFch370rZ8Eo-49" value="" style="endArrow=none;dashed=1;html=1;dashPattern=1 3;strokeWidth=2;" parent="1" edge="1">
          <mxGeometry width="50" height="50" relative="1" as="geometry">
            <mxPoint x="205" y="1327" as="sourcePoint" />
            <mxPoint x="205" y="1206" as="targetPoint" />
          </mxGeometry>
        </mxCell>
        <mxCell id="SFahAzJePFch370rZ8Eo-50" value="" style="endArrow=classic;startArrow=classic;html=1;strokeColor=#3333FF;strokeWidth=2;" parent="1" edge="1">
          <mxGeometry width="50" height="50" relative="1" as="geometry">
            <mxPoint x="-8" y="1273" as="sourcePoint" />
            <mxPoint x="122.99999999999977" y="1273" as="targetPoint" />
          </mxGeometry>
        </mxCell>
        <mxCell id="SFahAzJePFch370rZ8Eo-51" value="" style="endArrow=classic;startArrow=classic;html=1;strokeColor=#00FF00;strokeWidth=2;" parent="1" edge="1">
          <mxGeometry width="50" height="50" relative="1" as="geometry">
            <mxPoint x="126" y="1297" as="sourcePoint" />
            <mxPoint x="202.99999999999977" y="1297" as="targetPoint" />
          </mxGeometry>
        </mxCell>
        <mxCell id="SFahAzJePFch370rZ8Eo-52" value="&lt;span lang=&quot;EN-US&quot; style=&quot;font-size: 15px; font-family: &amp;quot;times new roman&amp;quot;, serif;&quot;&gt;&lt;font color=&quot;#ff3333&quot; style=&quot;font-size: 15px;&quot;&gt;eligibilityTime&lt;/font&gt;&lt;/span&gt;" style="text;whiteSpace=wrap;html=1;fontSize=15;strokeWidth=2;" parent="1" vertex="1">
          <mxGeometry x="532.0041379310346" y="1127.9975862068964" width="115" height="29" as="geometry" />
        </mxCell>
        <mxCell id="SFahAzJePFch370rZ8Eo-53" value="" style="endArrow=none;dashed=1;html=1;dashPattern=1 3;strokeWidth=2;" parent="1" edge="1">
          <mxGeometry width="50" height="50" relative="1" as="geometry">
            <mxPoint x="494.9999999999998" y="1327" as="sourcePoint" />
            <mxPoint x="495" y="1220" as="targetPoint" />
          </mxGeometry>
        </mxCell>
        <mxCell id="SFahAzJePFch370rZ8Eo-54" value="&lt;span lang=&quot;EN-US&quot; style=&quot;font-size: 15px; font-family: &amp;quot;times new roman&amp;quot;, serif;&quot;&gt;&lt;font color=&quot;#ff3333&quot; style=&quot;font-size: 15px;&quot;&gt;BucketEmptyTime&lt;/font&gt;&lt;/span&gt;" style="text;whiteSpace=wrap;html=1;fontSize=15;strokeWidth=2;" parent="1" vertex="1">
          <mxGeometry x="441" y="1179" width="86" height="27" as="geometry" />
        </mxCell>
        <mxCell id="SFahAzJePFch370rZ8Eo-55" value="" style="endArrow=classic;startArrow=classic;html=1;strokeColor=#00FF00;strokeWidth=2;" parent="1" edge="1">
          <mxGeometry width="50" height="50" relative="1" as="geometry">
            <mxPoint x="498.0000000000002" y="1296" as="sourcePoint" />
            <mxPoint x="574.9999999999998" y="1296" as="targetPoint" />
          </mxGeometry>
        </mxCell>
        <mxCell id="SFahAzJePFch370rZ8Eo-56" value="" style="endArrow=classic;startArrow=classic;html=1;strokeColor=#FF3333;strokeWidth=2;" parent="1" edge="1">
          <mxGeometry width="50" height="50" relative="1" as="geometry">
            <mxPoint x="-6" y="1324" as="sourcePoint" />
            <mxPoint x="207" y="1324" as="targetPoint" />
          </mxGeometry>
        </mxCell>
        <mxCell id="SFahAzJePFch370rZ8Eo-57" value="&lt;span lang=&quot;EN-US&quot; style=&quot;font-size: 15px ; font-family: &amp;#34;times new roman&amp;#34; , serif&quot;&gt;&lt;font style=&quot;font-size: 15px&quot;&gt;GroupEligibilityTime&lt;/font&gt;&lt;/span&gt;" style="text;whiteSpace=wrap;html=1;fontSize=15;strokeWidth=2;" parent="1" vertex="1">
          <mxGeometry x="249" y="1128" width="86" height="27" as="geometry" />
        </mxCell>
        <mxCell id="SFahAzJePFch370rZ8Eo-58" value="" style="endArrow=classic;html=1;strokeWidth=2;" parent="1" edge="1">
          <mxGeometry width="50" height="50" relative="1" as="geometry">
            <mxPoint x="18" y="1619" as="sourcePoint" />
            <mxPoint x="741" y="1619" as="targetPoint" />
          </mxGeometry>
        </mxCell>
        <mxCell id="SFahAzJePFch370rZ8Eo-59" value="" style="endArrow=none;dashed=1;html=1;dashPattern=1 3;strokeWidth=2;" parent="1" edge="1">
          <mxGeometry width="50" height="50" relative="1" as="geometry">
            <mxPoint x="400.5" y="1707.9999999999998" as="sourcePoint" />
            <mxPoint x="400.5" y="1543" as="targetPoint" />
          </mxGeometry>
        </mxCell>
        <mxCell id="SFahAzJePFch370rZ8Eo-60" value="&lt;span lang=&quot;EN-US&quot; style=&quot;font-size: 15px; font-family: &amp;quot;times new roman&amp;quot;, serif;&quot;&gt;BucketEmptyTime&lt;/span&gt;" style="text;whiteSpace=wrap;html=1;fontSize=15;strokeWidth=2;" parent="1" vertex="1">
          <mxGeometry x="358" y="1509" width="86" height="27" as="geometry" />
        </mxCell>
        <mxCell id="SFahAzJePFch370rZ8Eo-62" value="&lt;span lang=&quot;EN-US&quot; style=&quot;font-size: 15px; font-family: &amp;quot;times new roman&amp;quot;, serif;&quot;&gt;&lt;font color=&quot;#ff3333&quot; style=&quot;font-size: 15px;&quot;&gt;GroupEligibilityTime&lt;/font&gt;&lt;/span&gt;" style="text;whiteSpace=wrap;html=1;fontSize=15;strokeWidth=2;" parent="1" vertex="1">
          <mxGeometry x="520" y="1471" width="86" height="27" as="geometry" />
        </mxCell>
        <mxCell id="SFahAzJePFch370rZ8Eo-63" value="" style="endArrow=none;dashed=1;html=1;dashPattern=1 3;strokeWidth=2;" parent="1" edge="1">
          <mxGeometry width="50" height="50" relative="1" as="geometry">
            <mxPoint x="79" y="1695" as="sourcePoint" />
            <mxPoint x="79.00000000000023" y="1522" as="targetPoint" />
          </mxGeometry>
        </mxCell>
        <mxCell id="SFahAzJePFch370rZ8Eo-64" value="&lt;span lang=&quot;EN-US&quot; style=&quot;font-size: 15px; font-family: &amp;quot;times new roman&amp;quot;, serif;&quot;&gt;arrivalTime&lt;/span&gt;" style="text;whiteSpace=wrap;html=1;fontSize=15;strokeWidth=2;" parent="1" vertex="1">
          <mxGeometry x="30" y="1492" width="86" height="27" as="geometry" />
        </mxCell>
        <mxCell id="SFahAzJePFch370rZ8Eo-65" value="" style="endArrow=none;dashed=1;html=1;dashPattern=1 3;strokeWidth=2;" parent="1" edge="1">
          <mxGeometry width="50" height="50" relative="1" as="geometry">
            <mxPoint x="580" y="1709.9999999999998" as="sourcePoint" />
            <mxPoint x="580" y="1545" as="targetPoint" />
          </mxGeometry>
        </mxCell>
        <mxCell id="SFahAzJePFch370rZ8Eo-66" value="&lt;span lang=&quot;EN-US&quot; style=&quot;font-size: 15px; font-family: &amp;quot;times new roman&amp;quot;, serif;&quot;&gt;schedulerEligibilityTime&lt;/span&gt;" style="text;whiteSpace=wrap;html=1;fontSize=15;strokeWidth=2;" parent="1" vertex="1">
          <mxGeometry x="504" y="1525" width="86" height="27" as="geometry" />
        </mxCell>
        <mxCell id="SFahAzJePFch370rZ8Eo-67" value="&lt;span lang=&quot;EN-US&quot; style=&quot;font-size: 15px; font-family: &amp;quot;times new roman&amp;quot;, serif;&quot;&gt;bucketFullTime&lt;/span&gt;" style="text;whiteSpace=wrap;html=1;fontSize=15;strokeWidth=2;" parent="1" vertex="1">
          <mxGeometry x="615.998275862069" y="1552.0013793103449" width="109" height="28" as="geometry" />
        </mxCell>
        <mxCell id="SFahAzJePFch370rZ8Eo-68" value="" style="endArrow=none;dashed=1;html=1;dashPattern=1 3;strokeWidth=2;" parent="1" edge="1">
          <mxGeometry width="50" height="50" relative="1" as="geometry">
            <mxPoint x="660" y="1710.9999999999998" as="sourcePoint" />
            <mxPoint x="660" y="1579" as="targetPoint" />
          </mxGeometry>
        </mxCell>
        <mxCell id="SFahAzJePFch370rZ8Eo-69" value="" style="endArrow=classic;startArrow=classic;html=1;strokeColor=#3333FF;strokeWidth=2;" parent="1" edge="1">
          <mxGeometry width="50" height="50" relative="1" as="geometry">
            <mxPoint x="400" y="1657" as="sourcePoint" />
            <mxPoint x="577.9999999999998" y="1657" as="targetPoint" />
          </mxGeometry>
        </mxCell>
        <mxCell id="SFahAzJePFch370rZ8Eo-71" value="&lt;span lang=&quot;EN-US&quot; style=&quot;font-size: 15px; font-family: &amp;quot;times new roman&amp;quot;, serif;&quot;&gt;&lt;font color=&quot;#ff3333&quot; style=&quot;font-size: 15px;&quot;&gt;eligibilityTime&lt;/font&gt;&lt;/span&gt;" style="text;whiteSpace=wrap;html=1;fontSize=15;strokeWidth=2;" parent="1" vertex="1">
          <mxGeometry x="529.0041379310346" y="1495.9975862068964" width="115" height="29" as="geometry" />
        </mxCell>
        <mxCell id="SFahAzJePFch370rZ8Eo-75" value="" style="endArrow=classic;startArrow=classic;html=1;strokeColor=#FF3333;strokeWidth=2;" parent="1" edge="1">
          <mxGeometry width="50" height="50" relative="1" as="geometry">
            <mxPoint x="398" y="1708" as="sourcePoint" />
            <mxPoint x="662.0000000000002" y="1708" as="targetPoint" />
          </mxGeometry>
        </mxCell>
        <mxCell id="SFahAzJePFch370rZ8Eo-80" value="&lt;span lang=&quot;EN-US&quot; style=&quot;font-size: 15px ; font-family: &amp;#34;times new roman&amp;#34; , serif&quot;&gt;&lt;font style=&quot;font-size: 15px&quot;&gt;GroupEligibilityTime&lt;/font&gt;&lt;/span&gt;" style="text;whiteSpace=wrap;html=1;fontSize=15;strokeWidth=2;" parent="1" vertex="1">
          <mxGeometry x="343" y="1488" width="86" height="27" as="geometry" />
        </mxCell>
        <mxCell id="SFahAzJePFch370rZ8Eo-82" value="&lt;span lang=&quot;EN-US&quot; style=&quot;font-size: 15px ; font-family: &amp;#34;times new roman&amp;#34; , serif&quot;&gt;&lt;font color=&quot;#ff3333&quot;&gt;BucketEmptyTime&lt;/font&gt;&lt;/span&gt;" style="text;whiteSpace=wrap;html=1;fontSize=15;strokeWidth=2;" parent="1" vertex="1">
          <mxGeometry x="527" y="1444" width="86" height="27" as="geometry" />
        </mxCell>
        <mxCell id="SFahAzJePFch370rZ8Eo-83" value="&lt;span&gt;数据帧&lt;/span&gt;" style="rounded=0;whiteSpace=wrap;html=1;strokeWidth=2;" parent="1" vertex="1">
          <mxGeometry x="372" y="904" width="82" height="20" as="geometry" />
        </mxCell>
        <mxCell id="SFahAzJePFch370rZ8Eo-84" value="&lt;span lang=&quot;EN-US&quot; style=&quot;font-size: 15px ; font-family: &amp;#34;times new roman&amp;#34; , serif&quot;&gt;时间轴&lt;/span&gt;" style="text;whiteSpace=wrap;html=1;fontSize=15;strokeWidth=2;" parent="1" vertex="1">
          <mxGeometry x="620" y="894" width="86" height="27" as="geometry" />
        </mxCell>
        <mxCell id="SFahAzJePFch370rZ8Eo-85" value="&lt;b&gt;eligibilityTime = max(arrivalTime,GroupEligibilityTime,shaperEligibilityTime)&lt;/b&gt;" style="text;whiteSpace=wrap;html=1;fontSize=15;fontFamily=Times New Roman;" parent="1" vertex="1">
          <mxGeometry x="68" y="1008" width="690" height="50" as="geometry" />
        </mxCell>
        <mxCell id="SFahAzJePFch370rZ8Eo-87" value="&lt;span lang=&quot;EN-US&quot; style=&quot;font-size: 15px&quot;&gt;&lt;font style=&quot;font-size: 15px&quot;&gt;GroupEligibilityTime&lt;/font&gt;&lt;/span&gt;" style="text;whiteSpace=wrap;html=1;fontSize=15;strokeWidth=2;fontFamily=Times New Roman;" parent="1" vertex="1">
          <mxGeometry x="526" y="777" width="86" height="27" as="geometry" />
        </mxCell>
        <mxCell id="SFahAzJePFch370rZ8Eo-89" value="&lt;b&gt;eligibilityTime = max(arrivalTime,GroupEligibilityTime,shaperEligibilityTime)&lt;/b&gt;" style="text;whiteSpace=wrap;html=1;fontSize=15;fontFamily=Times New Roman;strokeWidth=2;" parent="1" vertex="1">
          <mxGeometry x="56" y="1330" width="690" height="50" as="geometry" />
        </mxCell>
        <mxCell id="SFahAzJePFch370rZ8Eo-90" value="&lt;span lang=&quot;EN-US&quot; style=&quot;font-size: 15px ; font-family: &amp;#34;times new roman&amp;#34; , serif&quot;&gt;时间轴&lt;/span&gt;" style="text;whiteSpace=wrap;html=1;fontSize=15;strokeWidth=2;" parent="1" vertex="1">
          <mxGeometry x="625" y="1247" width="86" height="27" as="geometry" />
        </mxCell>
        <mxCell id="SFahAzJePFch370rZ8Eo-91" value="&lt;span lang=&quot;EN-US&quot; style=&quot;font-size: 15px ; font-family: &amp;#34;times new roman&amp;#34; , serif&quot;&gt;所有整形器的最新合格时间&lt;/span&gt;" style="text;whiteSpace=wrap;html=1;fontSize=15;strokeWidth=2;" parent="1" vertex="1">
          <mxGeometry x="227" y="1110" width="208" height="27" as="geometry" />
        </mxCell>
        <mxCell id="SFahAzJePFch370rZ8Eo-92" value="" style="endArrow=classic;startArrow=classic;html=1;strokeColor=#00FF00;strokeWidth=2;" parent="1" edge="1">
          <mxGeometry width="50" height="50" relative="1" as="geometry">
            <mxPoint x="582.0000000000002" y="1676" as="sourcePoint" />
            <mxPoint x="658.9999999999995" y="1676" as="targetPoint" />
          </mxGeometry>
        </mxCell>
        <mxCell id="SFahAzJePFch370rZ8Eo-93" value="&lt;b&gt;eligibilityTime = max(arrivalTime,GroupEligibilityTime,shaperEligibilityTime)&lt;/b&gt;" style="text;whiteSpace=wrap;html=1;fontSize=15;fontFamily=Times New Roman;strokeWidth=2;" parent="1" vertex="1">
          <mxGeometry x="127" y="1714" width="690" height="50" as="geometry" />
        </mxCell>
        <mxCell id="SFahAzJePFch370rZ8Eo-94" value="&lt;span lang=&quot;EN-US&quot; style=&quot;font-size: 15px ; font-family: &amp;#34;times new roman&amp;#34; , serif&quot;&gt;时间轴&lt;/span&gt;" style="text;whiteSpace=wrap;html=1;fontSize=15;strokeWidth=2;" parent="1" vertex="1">
          <mxGeometry x="687" y="1623" width="86" height="27" as="geometry" />
        </mxCell>
        <mxCell id="SFahAzJePFch370rZ8Eo-95" value="&lt;span&gt;数据帧&lt;/span&gt;" style="rounded=0;whiteSpace=wrap;html=1;strokeWidth=2;" parent="1" vertex="1">
          <mxGeometry x="578" y="1220" width="82" height="20" as="geometry" />
        </mxCell>
        <mxCell id="SFahAzJePFch370rZ8Eo-96" value="&lt;span&gt;数据帧&lt;/span&gt;" style="rounded=0;whiteSpace=wrap;html=1;strokeWidth=2;" parent="1" vertex="1">
          <mxGeometry x="78" y="1599" width="82" height="20" as="geometry" />
        </mxCell>
        <mxCell id="uLEsSZK5AvrN5cMwI6N0-2" value="" style="verticalLabelPosition=bottom;verticalAlign=top;html=1;shape=mxgraph.basic.8_point_star;fillColor=#fff2cc;strokeColor=#d6b656;" vertex="1" parent="1">
          <mxGeometry x="356" y="919" width="28" height="23" as="geometry" />
        </mxCell>
        <mxCell id="uLEsSZK5AvrN5cMwI6N0-3" value="" style="endArrow=none;dashed=1;html=1;dashPattern=1 3;strokeWidth=2;" edge="1" parent="1" target="uLEsSZK5AvrN5cMwI6N0-2">
          <mxGeometry width="50" height="50" relative="1" as="geometry">
            <mxPoint x="371" y="1004" as="sourcePoint" />
            <mxPoint x="371" y="839" as="targetPoint" />
          </mxGeometry>
        </mxCell>
        <mxCell id="uLEsSZK5AvrN5cMwI6N0-4" value="&lt;span lang=&quot;EN-US&quot; style=&quot;font-size: 15px ; font-family: &amp;#34;times new roman&amp;#34; , serif&quot;&gt;数据帧到达&lt;/span&gt;" style="text;whiteSpace=wrap;html=1;fontSize=15;strokeWidth=2;" vertex="1" parent="1">
          <mxGeometry x="313" y="949" width="79" height="27" as="geometry" />
        </mxCell>
        <mxCell id="uLEsSZK5AvrN5cMwI6N0-6" value="" style="verticalLabelPosition=bottom;verticalAlign=top;html=1;shape=mxgraph.basic.8_point_star;fillColor=#fff2cc;strokeColor=#d6b656;" vertex="1" parent="1">
          <mxGeometry x="560" y="1229" width="28" height="23" as="geometry" />
        </mxCell>
        <mxCell id="uLEsSZK5AvrN5cMwI6N0-7" value="&lt;span lang=&quot;EN-US&quot; style=&quot;font-size: 15px ; font-family: &amp;#34;times new roman&amp;#34; , serif&quot;&gt;数据帧到达&lt;/span&gt;" style="text;whiteSpace=wrap;html=1;fontSize=15;strokeWidth=2;" vertex="1" parent="1">
          <mxGeometry x="517" y="1259" width="79" height="27" as="geometry" />
        </mxCell>
        <mxCell id="uLEsSZK5AvrN5cMwI6N0-8" value="" style="verticalLabelPosition=bottom;verticalAlign=top;html=1;shape=mxgraph.basic.8_point_star;fillColor=#fff2cc;strokeColor=#d6b656;" vertex="1" parent="1">
          <mxGeometry x="64.5" y="1609" width="28" height="23" as="geometry" />
        </mxCell>
        <mxCell id="uLEsSZK5AvrN5cMwI6N0-9" value="&lt;span lang=&quot;EN-US&quot; style=&quot;font-size: 15px ; font-family: &amp;#34;times new roman&amp;#34; , serif&quot;&gt;数据帧到达&lt;/span&gt;" style="text;whiteSpace=wrap;html=1;fontSize=15;strokeWidth=2;" vertex="1" parent="1">
          <mxGeometry x="21.5" y="1639" width="79" height="27" as="geometry" />
        </mxCell>
        <mxCell id="uLEsSZK5AvrN5cMwI6N0-14" value="&lt;span lang=&quot;EN-US&quot; style=&quot;font-size: 15px ; font-family: &amp;#34;times new roman&amp;#34; , serif&quot;&gt;所有整形器的最新合格时间&lt;/span&gt;" style="text;whiteSpace=wrap;html=1;fontSize=15;strokeWidth=2;" vertex="1" parent="1">
          <mxGeometry x="485.5" y="756" width="208" height="27" as="geometry" />
        </mxCell>
        <mxCell id="uLEsSZK5AvrN5cMwI6N0-15" value="&lt;span lang=&quot;EN-US&quot; style=&quot;font-size: 15px ; font-family: &amp;#34;times new roman&amp;#34; , serif&quot;&gt;所有整形器的最新合格时间&lt;/span&gt;" style="text;whiteSpace=wrap;html=1;fontSize=15;strokeWidth=2;" vertex="1" parent="1">
          <mxGeometry x="317" y="1468" width="208" height="27" as="geometry" />
        </mxCell>
      </root>
    </mxGraphModel>
  </diagram>
</mxfile>
